# xmcd
#
# Track frame offsets:
#	282
#	14450
#	24757
#	67215
#	84525
#	101155
#	116380
#	130682
#	148642
#	164555
#	185205
#	216022
#
# Disc length: 3017 seconds
#
# Revision: 0
# Processed by: cddbd v1.4PL0 Copyright (c) Steve Scherf et al.
# Submitted via: EasyCDDAExtractor 4.6.0.1
#
DISCID=ab0bc60c
DTITLE=Gerulf pannach - Yorck 17
DYEAR=1996
DGENRE=Blues
TTITLE0=Im Neonlicht hell
TTITLE1=Whiskey Blues
TTITLE2=Fuß aus Stolz
TTITLE3=Mann im schwarzen Rock
TTITLE4=Was' gut
TTITLE5=Endloser Kreislauf
TTITLE6=Liebe und Leid
TTITLE7=Berlin-Mitte
TTITLE8=Sonne wie ein Clown
TTITLE9=Kap Horn
TTITLE10=Madame (weit über's Meer
TTITLE11=Hidden Track: Robin Hood
EXTD=
EXTT0=
EXTT1=
EXTT2=
EXTT3=
EXTT4=
EXTT5=
EXTT6=
EXTT7=
EXTT8=
EXTT9=
EXTT10=
EXTT11=
PLAYORDER=
